<svg xmlns="http://www.w3.org/2000/svg" width="666" height="375" viewBox="0 0 666 375">
<g>
<path d="M 272.50 289.95 C257.39,287.47 245.83,280.47 238.29,269.22 C233.20,261.63 232.16,258.33 230.98,246.00 C229.72,232.80 229.76,132.12 231.04,124.00 C234.21,103.77 251.55,87.45 272.62,84.87 C277.97,84.22 302.49,83.98 338.81,84.23 C393.63,84.60 396.80,84.72 402.60,86.66 C419.27,92.23 431.94,106.51 435.03,123.21 C435.70,126.84 435.97,151.09 435.77,191.67 C435.44,262.50 436.00,257.25 427.32,269.67 C419.12,281.41 407.37,288.37 393.00,290.01 C382.84,291.17 279.65,291.12 272.50,289.95 ZM 277.00 256.98 C283.88,255.27 291.75,253.32 294.50,252.64 C299.06,251.51 299.94,251.60 304.50,253.65 C317.65,259.58 336.71,261.59 350.64,258.51 C380.36,251.96 402.80,229.11 408.62,199.50 C410.35,190.69 410.34,177.17 408.59,170.00 C404.75,154.25 398.18,142.82 386.37,131.34 C365.40,110.95 336.28,105.32 307.51,116.08 C290.54,122.43 276.64,135.63 268.09,153.50 C262.80,164.56 261.49,171.18 261.55,186.50 C261.59,200.33 262.70,205.83 267.78,217.33 C270.68,223.93 270.86,222.47 264.04,247.50 C260.50,260.45 260.42,261.31 262.75,260.62 C263.71,260.33 270.12,258.70 277.00,256.98 ZM 325.40 247.07 C318.62,245.99 313.67,244.36 306.83,240.94 L 301.17 238.12 L 290.07 240.94 C283.97,242.49 278.79,243.47 278.57,243.11 C278.34,242.75 279.44,237.75 281.00,232.00 L 283.84 221.55 L 279.99 213.49 C270.89,194.42 271.12,175.25 280.66,156.90 C287.48,143.78 298.77,133.86 313.71,127.85 C320.45,125.14 323.06,124.65 333.07,124.26 C344.01,123.83 345.17,123.97 354.22,126.96 C369.43,131.98 379.59,139.74 387.40,152.32 C394.36,163.51 397.00,172.65 397.00,185.53 C397.00,194.73 396.59,197.44 394.01,205.14 C390.44,215.78 386.28,222.55 378.72,230.00 C367.87,240.70 354.55,246.57 339.26,247.40 C334.44,247.66 328.21,247.51 325.40,247.07 ZM 366.24 217.96 C370.98,214.82 373.00,211.20 373.00,205.81 C373.00,203.19 372.26,202.57 364.80,198.96 C360.29,196.78 355.86,195.00 354.94,195.00 C354.02,195.00 352.01,196.83 350.46,199.06 C348.91,201.29 346.91,203.51 346.02,203.99 C343.93,205.11 337.87,202.42 331.02,197.34 C325.43,193.20 316.99,182.84 317.02,180.15 C317.02,179.24 318.37,176.98 320.02,175.11 C321.66,173.25 323.00,171.24 323.00,170.65 C323.00,170.06 321.36,165.61 319.35,160.77 C315.39,151.22 314.06,150.15 307.74,151.45 C301.03,152.82 296.22,163.60 298.04,173.19 C300.21,184.63 313.93,202.16 328.33,211.89 C335.38,216.66 348.07,220.88 355.58,220.95 C360.73,220.99 362.36,220.54 366.24,217.96 Z" fill="rgba(0,0,0,1)"/>
</g>
</svg>